<mxfile host="app.diagrams.net" modified="2023-10-18T14:19:06.408Z" agent="Mozilla/5.0 (Windows NT 10.0; Win64; x64) AppleWebKit/537.36 (KHTML, like Gecko) Chrome/118.0.0.0 Safari/537.36" etag="zIqVZygchblfNhBK-_xD" version="22.0.4" type="github">
  <diagram name="Page-1" id="zlN3Yg1d3MWlkE1_YTVP">
    <mxGraphModel dx="1434" dy="790" grid="1" gridSize="10" guides="1" tooltips="1" connect="1" arrows="1" fold="1" page="1" pageScale="1" pageWidth="827" pageHeight="1169" math="0" shadow="0">
      <root>
        <mxCell id="0" />
        <mxCell id="1" parent="0" />
        <mxCell id="oxWqg1YV06Ovz-I7pYca-1" value="HR Department" style="shape=umlLifeline;perimeter=lifelinePerimeter;whiteSpace=wrap;container=1;dropTarget=0;collapsible=0;recursiveResize=0;outlineConnect=0;portConstraint=eastwest;newEdgeStyle={&quot;edgeStyle&quot;:&quot;elbowEdgeStyle&quot;,&quot;elbow&quot;:&quot;vertical&quot;,&quot;curved&quot;:0,&quot;rounded&quot;:0};size=65;" vertex="1" parent="1">
          <mxGeometry x="20" y="20" width="150" height="994" as="geometry" />
        </mxCell>
        <mxCell id="oxWqg1YV06Ovz-I7pYca-2" value="Employee Management System" style="shape=umlLifeline;perimeter=lifelinePerimeter;whiteSpace=wrap;container=1;dropTarget=0;collapsible=0;recursiveResize=0;outlineConnect=0;portConstraint=eastwest;newEdgeStyle={&quot;edgeStyle&quot;:&quot;elbowEdgeStyle&quot;,&quot;elbow&quot;:&quot;vertical&quot;,&quot;curved&quot;:0,&quot;rounded&quot;:0};size=65;" vertex="1" parent="1">
          <mxGeometry x="241" y="20" width="242" height="994" as="geometry" />
        </mxCell>
        <mxCell id="oxWqg1YV06Ovz-I7pYca-3" value="New Employee" style="shape=umlLifeline;perimeter=lifelinePerimeter;whiteSpace=wrap;container=1;dropTarget=0;collapsible=0;recursiveResize=0;outlineConnect=0;portConstraint=eastwest;newEdgeStyle={&quot;edgeStyle&quot;:&quot;elbowEdgeStyle&quot;,&quot;elbow&quot;:&quot;vertical&quot;,&quot;curved&quot;:0,&quot;rounded&quot;:0};size=65;" vertex="1" parent="1">
          <mxGeometry x="615" y="20" width="150" height="994" as="geometry" />
        </mxCell>
        <mxCell id="oxWqg1YV06Ovz-I7pYca-4" value="loop" style="shape=umlFrame;dashed=1;pointerEvents=0;dropTarget=0;strokeColor=#B3B3B3;height=20;width=40" vertex="1" parent="1">
          <mxGeometry x="85" y="229" width="690" height="232" as="geometry" />
        </mxCell>
        <mxCell id="oxWqg1YV06Ovz-I7pYca-5" value="[Onboarding Tasks]" style="text;strokeColor=none;fillColor=none;align=center;verticalAlign=middle;whiteSpace=wrap;" vertex="1" parent="oxWqg1YV06Ovz-I7pYca-4">
          <mxGeometry x="40" width="650" height="20" as="geometry" />
        </mxCell>
        <mxCell id="oxWqg1YV06Ovz-I7pYca-6" value="loop" style="shape=umlFrame;dashed=1;pointerEvents=0;dropTarget=0;strokeColor=#B3B3B3;height=20;width=40" vertex="1" parent="1">
          <mxGeometry x="85" y="553" width="615" height="98" as="geometry" />
        </mxCell>
        <mxCell id="oxWqg1YV06Ovz-I7pYca-7" value="[Employee Lifecycle]" style="text;strokeColor=none;fillColor=none;align=center;verticalAlign=middle;whiteSpace=wrap;" vertex="1" parent="oxWqg1YV06Ovz-I7pYca-6">
          <mxGeometry x="40" width="575" height="20" as="geometry" />
        </mxCell>
        <mxCell id="oxWqg1YV06Ovz-I7pYca-8" value="Enter employee information" style="verticalAlign=bottom;endArrow=block;edgeStyle=elbowEdgeStyle;elbow=vertical;curved=0;rounded=0;endArrow=none;" edge="1" parent="1" source="oxWqg1YV06Ovz-I7pYca-1" target="oxWqg1YV06Ovz-I7pYca-2">
          <mxGeometry relative="1" as="geometry">
            <Array as="points">
              <mxPoint x="239" y="127" />
            </Array>
          </mxGeometry>
        </mxCell>
        <mxCell id="oxWqg1YV06Ovz-I7pYca-9" value="Generate onboarding checklist" style="curved=1;endArrow=none;rounded=0;" edge="1" parent="1" source="oxWqg1YV06Ovz-I7pYca-2" target="oxWqg1YV06Ovz-I7pYca-2">
          <mxGeometry relative="1" as="geometry">
            <Array as="points">
              <mxPoint x="412" y="179" />
              <mxPoint x="412" y="209" />
            </Array>
          </mxGeometry>
        </mxCell>
        <mxCell id="oxWqg1YV06Ovz-I7pYca-10" value="Assign tasks" style="verticalAlign=bottom;endArrow=block;edgeStyle=elbowEdgeStyle;elbow=vertical;curved=0;rounded=0;endArrow=none;" edge="1" parent="1">
          <mxGeometry x="-0.042" y="10" relative="1" as="geometry">
            <Array as="points">
              <mxPoint x="403.5" y="320" />
            </Array>
            <mxPoint x="95" y="320" as="sourcePoint" />
            <mxPoint x="690" y="320" as="targetPoint" />
            <mxPoint as="offset" />
          </mxGeometry>
        </mxCell>
        <mxCell id="oxWqg1YV06Ovz-I7pYca-11" value="Complete tasks" style="curved=1;endArrow=none;rounded=0;" edge="1" parent="1" source="oxWqg1YV06Ovz-I7pYca-3" target="oxWqg1YV06Ovz-I7pYca-3">
          <mxGeometry relative="1" as="geometry">
            <Array as="points">
              <mxPoint x="740" y="359" />
              <mxPoint x="740" y="389" />
            </Array>
          </mxGeometry>
        </mxCell>
        <mxCell id="oxWqg1YV06Ovz-I7pYca-12" value="Submit completed tasks" style="verticalAlign=bottom;endArrow=block;edgeStyle=elbowEdgeStyle;elbow=vertical;curved=0;rounded=0;endArrow=none;" edge="1" parent="1" source="oxWqg1YV06Ovz-I7pYca-3" target="oxWqg1YV06Ovz-I7pYca-2">
          <mxGeometry relative="1" as="geometry">
            <Array as="points">
              <mxPoint x="536" y="441" />
            </Array>
          </mxGeometry>
        </mxCell>
        <mxCell id="oxWqg1YV06Ovz-I7pYca-13" value="Store documents and information" style="curved=1;endArrow=none;rounded=0;" edge="1" parent="1" source="oxWqg1YV06Ovz-I7pYca-2" target="oxWqg1YV06Ovz-I7pYca-2">
          <mxGeometry relative="1" as="geometry">
            <Array as="points">
              <mxPoint x="412" y="503" />
              <mxPoint x="412" y="533" />
            </Array>
          </mxGeometry>
        </mxCell>
        <mxCell id="oxWqg1YV06Ovz-I7pYca-14" value="Ongoing management" style="verticalAlign=bottom;endArrow=block;edgeStyle=elbowEdgeStyle;elbow=vertical;curved=0;rounded=0;endArrow=none;" edge="1" parent="1" source="oxWqg1YV06Ovz-I7pYca-1" target="oxWqg1YV06Ovz-I7pYca-3">
          <mxGeometry relative="1" as="geometry">
            <Array as="points">
              <mxPoint x="403" y="631" />
            </Array>
          </mxGeometry>
        </mxCell>
        <mxCell id="oxWqg1YV06Ovz-I7pYca-15" value="Offboarding tasks" style="verticalAlign=bottom;endArrow=block;edgeStyle=elbowEdgeStyle;elbow=vertical;curved=0;rounded=0;endArrow=none;" edge="1" parent="1" source="oxWqg1YV06Ovz-I7pYca-1" target="oxWqg1YV06Ovz-I7pYca-3">
          <mxGeometry relative="1" as="geometry">
            <Array as="points">
              <mxPoint x="403" y="693" />
            </Array>
          </mxGeometry>
        </mxCell>
        <mxCell id="oxWqg1YV06Ovz-I7pYca-16" value="Complete offboarding tasks" style="curved=1;endArrow=none;rounded=0;" edge="1" parent="1" source="oxWqg1YV06Ovz-I7pYca-3" target="oxWqg1YV06Ovz-I7pYca-3">
          <mxGeometry relative="1" as="geometry">
            <Array as="points">
              <mxPoint x="740" y="745" />
              <mxPoint x="740" y="775" />
            </Array>
          </mxGeometry>
        </mxCell>
        <mxCell id="oxWqg1YV06Ovz-I7pYca-17" value="Submit completed offboarding tasks" style="verticalAlign=bottom;endArrow=block;edgeStyle=elbowEdgeStyle;elbow=vertical;curved=0;rounded=0;endArrow=none;" edge="1" parent="1" source="oxWqg1YV06Ovz-I7pYca-3" target="oxWqg1YV06Ovz-I7pYca-2">
          <mxGeometry relative="1" as="geometry">
            <Array as="points">
              <mxPoint x="536" y="827" />
            </Array>
          </mxGeometry>
        </mxCell>
        <mxCell id="oxWqg1YV06Ovz-I7pYca-18" value="Archive records and disable access" style="curved=1;endArrow=none;rounded=0;" edge="1" parent="1" source="oxWqg1YV06Ovz-I7pYca-2" target="oxWqg1YV06Ovz-I7pYca-2">
          <mxGeometry relative="1" as="geometry">
            <Array as="points">
              <mxPoint x="412" y="879" />
              <mxPoint x="412" y="909" />
            </Array>
          </mxGeometry>
        </mxCell>
      </root>
    </mxGraphModel>
  </diagram>
</mxfile>
